<?xml version="1.0" encoding="UTF-8"?>
<svg width="1200pt" height="1200pt" version="1.1" viewBox="0 0 1200 1200" xmlns="http://www.w3.org/2000/svg">
 <g>
  <path d="m1044 998.86h-420c-26.398 0-48 21.602-48 48v21.145c0 26.398 21.602 48 48 48h420c26.398 0 48-21.602 48-48v-21.145c0-26.398-21.602-48-48-48z"/>
  <path d="m1044 840h-420c-26.398 0-48 21.602-48 48v21.133c0 26.398 21.602 48 48 48h420c26.398 0 48-21.602 48-48v-21.133c0-26.398-21.602-48-48-48z"/>
  <path d="m1044 601.75h-28.02l-136.34-155.32c16.609-15.648 27.035-37.766 27.035-62.328 0-41.125-29.09-75.574-67.754-83.867v-20.594c10.789-6.457 18.098-18.156 18.098-31.645 0-16.211-10.488-29.832-24.996-34.836v-95.832c21.215-5.375 36.996-24.445 36.996-47.34 0-27.059-21.949-48.996-48.996-48.996-25.262 0-45.816 19.199-48.48 43.754l-407.28 135.09c-6.2539-8.1836-13.727-15.383-22.246-21.191v-37.648c0-26.398-21.602-48-48-48-26.398 0-48 21.602-48 48v30.77c-31.645 15.445-53.531 47.688-53.941 85.164l-151.63 50.289c-12.574 4.1758-19.391 17.746-15.227 30.336 3.3438 10.07 12.719 16.441 22.785 16.441 2.4961 0 5.0508-0.39453 7.5586-1.2227l148-49.078c9.5273 17.566 24.434 31.738 42.445 40.523v615.78h-66c-26.398 0-48 21.602-48 48v60c0 26.398 21.602 48 48 48h228c26.398 0 48-21.602 48-48v-60c0-26.398-21.602-48-48-48h-66v-622.64c25.344-17.281 42-46.367 42-79.355 0-4.6914-0.44531-9.2656-1.1055-13.777l407.74-135.23c5.125 3.8633 10.969 6.7305 17.375 8.3516v95.82c-14.508 5.0039-25.008 18.625-25.008 34.836 0 14.23 8.125 26.449 19.906 32.629v53.711h18c27.434 0 49.754 22.32 49.754 49.766 0 13.801-5.6641 26.281-14.746 35.305l-16.875-19.215c-0.011718-0.011719-0.023437-0.011719-0.023437-0.023438-0.011719 0-0.011719-0.011719-0.023437-0.023437-0.68359-0.76953-1.5469-1.2344-2.3633-1.7773-0.48047-0.32422-0.88672-0.80469-1.4023-1.0547-1.2461-0.60156-2.5781-0.88672-3.9258-1.0312-0.17969-0.011718-0.33594-0.12109-0.51562-0.13281-1.4414-0.097656-2.8789 0.12109-4.2852 0.55078-0.085938 0.023438-0.17969 0-0.26562 0.035157-0.88672 0.30078-1.6797 0.91016-2.4961 1.4297-0.52734 0.33594-1.1406 0.50391-1.6328 0.9375-0.011719 0.011719-0.011719 0.023437-0.023438 0.035156-0.011719 0-0.023437 0-0.023437 0.011719l-10.008 8.8906c-4.957 4.4023-5.3984 11.988-1.0078 16.945 2.375 2.6758 5.6758 4.0312 8.9766 4.0312 2.832 0 5.6875-0.99609 7.9688-3.0234l0.98438-0.875 5.7617 6.5742c-4.4141 1.2852-8.9883 2.1953-13.812 2.1953-27.445 0-49.766-22.32-49.766-49.766 0-9.9492-8.0625-18-18-18s-18 8.0508-18 18c0 47.293 38.473 85.766 85.766 85.766 14.062 0 27.289-3.4688 39.023-9.4922l124.09 141.36-307.6 0.003906 103.82-118.6c4.3672-4.9922 3.8633-12.562-1.1172-16.934-5.0039-4.3555-12.59-3.8633-16.934 1.1289l-117.67 134.4-20.543 0.003906c-26.398 0-48 21.602-48 48v21.145c0 26.398 21.602 48 48 48h420c26.398 0 48-21.602 48-48v-21.145c0-26.426-21.602-48.012-48-48.012z"/>
 </g>
</svg>
